<mxfile host="app.diagrams.net" modified="2024-03-27T10:38:41.393Z" agent="Mozilla/5.0 (Macintosh; Intel Mac OS X 10_15_7) AppleWebKit/537.36 (KHTML, like Gecko) Chrome/123.0.0.0 Safari/537.36" etag="E07Dxq2QoxkmUoJVehis" version="24.0.7" type="github">
  <diagram name="Page-1" id="5FrIVR7TYgqS7plrAyja">
    <mxGraphModel dx="1224" dy="713" grid="1" gridSize="10" guides="1" tooltips="1" connect="1" arrows="1" fold="1" page="1" pageScale="1" pageWidth="850" pageHeight="1100" math="0" shadow="0">
      <root>
        <mxCell id="0" />
        <mxCell id="1" parent="0" />
        <mxCell id="fcch9M_QB2PHcXGj5_8L-14" value="" style="rounded=0;whiteSpace=wrap;html=1;fillColor=#f8cecc;strokeColor=#b85450;fontSize=19;" vertex="1" parent="1">
          <mxGeometry y="70" width="1160" height="450" as="geometry" />
        </mxCell>
        <mxCell id="fcch9M_QB2PHcXGj5_8L-15" value="" style="group;fontSize=19;" vertex="1" connectable="0" parent="1">
          <mxGeometry x="40" y="200" width="1080" height="240" as="geometry" />
        </mxCell>
        <mxCell id="fcch9M_QB2PHcXGj5_8L-2" value="main(null)" style="rounded=0;whiteSpace=wrap;html=1;fillColor=#dae8fc;strokeColor=#6c8ebf;fontSize=19;" vertex="1" parent="fcch9M_QB2PHcXGj5_8L-15">
          <mxGeometry y="160" width="120" height="80" as="geometry" />
        </mxCell>
        <mxCell id="fcch9M_QB2PHcXGj5_8L-3" value="main(null)" style="rounded=0;whiteSpace=wrap;html=1;fillColor=#dae8fc;strokeColor=#6c8ebf;fontSize=19;" vertex="1" parent="fcch9M_QB2PHcXGj5_8L-15">
          <mxGeometry x="160" y="160" width="120" height="80" as="geometry" />
        </mxCell>
        <mxCell id="fcch9M_QB2PHcXGj5_8L-4" value="mystery(28)" style="rounded=0;whiteSpace=wrap;html=1;fillColor=#d5e8d4;strokeColor=#82b366;fontSize=19;" vertex="1" parent="fcch9M_QB2PHcXGj5_8L-15">
          <mxGeometry x="160" y="80" width="120" height="80" as="geometry" />
        </mxCell>
        <mxCell id="fcch9M_QB2PHcXGj5_8L-5" value="main(null)" style="rounded=0;whiteSpace=wrap;html=1;fillColor=#dae8fc;strokeColor=#6c8ebf;fontSize=19;" vertex="1" parent="fcch9M_QB2PHcXGj5_8L-15">
          <mxGeometry x="320" y="160" width="120" height="80" as="geometry" />
        </mxCell>
        <mxCell id="fcch9M_QB2PHcXGj5_8L-6" value="mystery(28)" style="rounded=0;whiteSpace=wrap;html=1;fillColor=#d5e8d4;strokeColor=#82b366;fontSize=19;" vertex="1" parent="fcch9M_QB2PHcXGj5_8L-15">
          <mxGeometry x="320" y="80" width="120" height="80" as="geometry" />
        </mxCell>
        <mxCell id="fcch9M_QB2PHcXGj5_8L-7" value="twist(14)" style="rounded=0;whiteSpace=wrap;html=1;fillColor=#ffe6cc;strokeColor=#d79b00;fontSize=19;" vertex="1" parent="fcch9M_QB2PHcXGj5_8L-15">
          <mxGeometry x="320" width="120" height="80" as="geometry" />
        </mxCell>
        <mxCell id="fcch9M_QB2PHcXGj5_8L-8" value="main(null)" style="rounded=0;whiteSpace=wrap;html=1;fillColor=#dae8fc;strokeColor=#6c8ebf;fontSize=19;" vertex="1" parent="fcch9M_QB2PHcXGj5_8L-15">
          <mxGeometry x="480" y="160" width="120" height="80" as="geometry" />
        </mxCell>
        <mxCell id="fcch9M_QB2PHcXGj5_8L-9" value="mystery(28)" style="rounded=0;whiteSpace=wrap;html=1;fillColor=#d5e8d4;strokeColor=#82b366;fontSize=19;" vertex="1" parent="fcch9M_QB2PHcXGj5_8L-15">
          <mxGeometry x="480" y="80" width="120" height="80" as="geometry" />
        </mxCell>
        <mxCell id="fcch9M_QB2PHcXGj5_8L-10" value="main(null)" style="rounded=0;whiteSpace=wrap;html=1;fillColor=#dae8fc;strokeColor=#6c8ebf;fontSize=19;" vertex="1" parent="fcch9M_QB2PHcXGj5_8L-15">
          <mxGeometry x="640" y="160" width="120" height="80" as="geometry" />
        </mxCell>
        <mxCell id="fcch9M_QB2PHcXGj5_8L-11" value="main(null)" style="rounded=0;whiteSpace=wrap;html=1;fillColor=#dae8fc;strokeColor=#6c8ebf;fontSize=19;" vertex="1" parent="fcch9M_QB2PHcXGj5_8L-15">
          <mxGeometry x="800" y="160" width="120" height="80" as="geometry" />
        </mxCell>
        <mxCell id="fcch9M_QB2PHcXGj5_8L-12" value="System.&lt;div&gt;out.&lt;/div&gt;&lt;div&gt;println(16)&lt;/div&gt;" style="rounded=0;whiteSpace=wrap;html=1;fillColor=#d5e8d4;strokeColor=#82b366;fontSize=19;" vertex="1" parent="fcch9M_QB2PHcXGj5_8L-15">
          <mxGeometry x="800" y="80" width="120" height="80" as="geometry" />
        </mxCell>
        <mxCell id="fcch9M_QB2PHcXGj5_8L-13" value="main(null)" style="rounded=0;whiteSpace=wrap;html=1;fillColor=#dae8fc;strokeColor=#6c8ebf;fontSize=19;" vertex="1" parent="fcch9M_QB2PHcXGj5_8L-15">
          <mxGeometry x="960" y="160" width="120" height="80" as="geometry" />
        </mxCell>
      </root>
    </mxGraphModel>
  </diagram>
</mxfile>
